<svg width="131" height="162" viewBox="0 0 131 162" fill="none" xmlns="http://www.w3.org/2000/svg">
<path d="M22.9972 1.27701C23.8155 0.459356 24.9254 0 26.0827 0H104.628C105.786 0 106.895 0.459356 107.714 1.27701C108.532 2.09468 108.992 3.20366 108.992 4.36V17.44C108.992 18.5963 108.532 19.7053 107.714 20.523C106.895 21.3407 105.785 21.8 104.628 21.8H26.0827C24.9254 21.8 23.8155 21.3407 22.9972 20.523C22.1788 19.7053 21.7191 18.5963 21.7191 17.44V4.36C21.7191 3.20366 22.1788 2.09468 22.9972 1.27701Z" fill="black"/>
<path d="M28.2646 22.89C29.4695 22.89 30.4464 23.866 30.4464 25.07C30.4464 28.5938 29.8562 31.2789 28.9035 33.4801C27.9559 35.6696 26.6976 37.2623 25.5698 38.6005C25.3996 38.8025 25.235 38.9959 25.076 39.1829L25.0731 39.1862C24.1401 40.2831 23.3975 41.1561 22.8113 42.2176C22.1745 43.3709 21.7191 44.7789 21.7191 46.87V87.2C21.7191 91.8254 23.5581 96.2613 26.8314 99.5319C30.1048 102.803 34.5444 104.64 39.1737 104.64H91.5373C96.1665 104.64 100.606 102.803 103.88 99.5319C107.153 96.2613 108.992 91.8254 108.992 87.2V46.87C108.992 44.7789 108.536 43.3709 107.9 42.2176C107.313 41.1561 106.571 40.2835 105.638 39.1867C105.478 38.9986 105.313 38.8039 105.141 38.6005C104.013 37.2623 102.755 35.6696 101.807 33.4801C100.855 31.2789 100.265 28.5938 100.265 25.07C100.265 23.866 101.241 22.89 102.446 22.89C103.651 22.89 104.628 23.866 104.628 25.07C104.628 28.0862 105.129 30.1698 105.813 31.7496C106.501 33.341 107.425 34.5414 108.479 35.792C108.62 35.9594 108.766 36.1307 108.916 36.3063L108.918 36.3078L108.918 36.3086C109.842 37.3903 110.904 38.6327 111.72 40.1114C112.72 41.9216 113.355 44.0561 113.355 46.87V87.2C113.355 92.9817 111.057 98.5266 106.965 102.615C102.873 106.703 97.3238 109 91.5373 109H39.1737C33.3871 109 27.8376 106.703 23.7459 102.615C19.6542 98.5266 17.3555 92.9817 17.3555 87.2V46.87C17.3555 44.0561 17.991 41.9216 18.9906 40.1114C19.8071 38.6327 20.8685 37.3903 21.7926 36.3086L21.7948 36.3061C21.9447 36.1306 22.091 35.9594 22.232 35.792C23.2861 34.5414 24.2095 33.341 24.8983 31.7496C25.582 30.1698 26.0827 28.0862 26.0827 25.07C26.0827 23.866 27.0596 22.89 28.2646 22.89Z" fill="black"/>
<path d="M25.3555 50C25.3555 45.5817 28.9372 42 33.3555 42H97.3555C101.774 42 105.355 45.5817 105.355 50V87C105.355 94.732 99.0875 101 91.3555 101H39.3555C31.6235 101 25.3555 94.732 25.3555 87V50Z" fill="black"/>
<path d="M102.022 153.948V136.164H106.054L105.91 140.844H105.946C106.738 137.784 108.898 135.876 112.138 135.876C115.594 135.876 117.826 137.676 118.258 140.556H118.294C118.942 137.676 121.102 135.876 124.486 135.876C128.446 135.876 130.714 138.432 130.714 142.608V153.948H126.682V143.508C126.682 140.916 125.422 139.332 123.01 139.332C120.202 139.332 118.402 141.42 118.402 145.128V153.948H114.37V143.436C114.37 140.916 113.038 139.332 110.626 139.332C107.89 139.332 106.054 141.456 106.054 145.272V153.948H102.022Z" fill="black"/>
<path d="M87.1096 154.236C83.0416 154.236 80.3416 152.292 80.3416 148.836C80.3416 146.136 82.2496 144.012 87.0016 144.012H93.5896V142.752C93.5896 140.088 92.0416 138.9 88.9096 138.9C86.1736 138.9 84.6256 139.944 84.6256 141.924C84.6256 142.032 84.6256 142.32 84.6616 142.608H80.9536C80.9176 142.356 80.8816 141.888 80.8816 141.564C80.8816 138 83.9776 135.876 89.0536 135.876C94.4536 135.876 97.6216 138.432 97.6216 143.112V153.948H93.5896C93.6616 153.084 93.7696 151.464 93.7696 150.024H93.7336C93.1576 152.652 91.0336 154.236 87.1096 154.236ZM87.9376 151.212C91.4296 151.212 93.5896 149.52 93.5896 146.784V146.46H87.3616C85.0576 146.46 84.0496 147.252 84.0496 148.656C84.0496 150.276 85.4896 151.212 87.9376 151.212Z" fill="black"/>
<path d="M71.9753 134.076V130.116H76.1513V134.076H71.9753ZM69.8153 161.472C68.1953 161.472 66.9353 161.22 66.4313 161.076V157.872C67.1153 158.016 67.9793 158.124 68.8073 158.124C71.0753 158.124 72.0473 156.72 72.0473 154.308V136.164H76.0793V154.452C76.0793 158.628 74.0633 161.472 69.8153 161.472Z" fill="black"/>
<path d="M48.8658 153.948V129H52.8978V137.064C52.8978 137.928 52.8258 139.98 52.7898 140.952H52.8258C53.7618 137.712 56.0658 135.876 60.2418 135.876C64.7418 135.876 67.5138 138.432 67.5138 142.824V153.948H63.4818V143.724C63.4818 140.916 61.8978 139.332 58.6938 139.332C55.1298 139.332 52.8978 141.528 52.8978 145.524V153.948H48.8658Z" fill="black"/>
<path d="M36.025 154.236C29.905 154.236 27.709 151.5 27.709 148.008H31.345C31.345 150.06 32.533 151.32 35.989 151.32C39.265 151.32 40.705 150.312 40.705 148.692C40.705 148.008 40.453 147.396 39.517 147.072C38.653 146.748 36.961 146.568 34.981 146.388C32.209 146.136 30.337 145.776 29.257 144.984C28.285 144.264 27.709 142.968 27.709 141.6C27.709 138.036 31.165 135.876 35.989 135.876C41.533 135.876 43.981 138.18 43.981 142.212H40.345C40.309 139.908 39.049 138.792 36.097 138.792C33.289 138.792 31.705 139.8 31.705 141.312C31.705 142.068 31.885 142.788 32.929 143.148C33.793 143.436 35.485 143.616 37.645 143.832C40.165 144.084 41.605 144.336 42.865 145.056C44.053 145.704 44.737 147.072 44.737 148.512C44.737 152.112 41.713 154.236 36.025 154.236Z" fill="black"/>
<path d="M19.4147 134.076V130.116H23.5547V134.076H19.4147ZM19.4507 153.948V136.164H23.4827V153.948H19.4507Z" fill="black"/>
<path d="M0 153.948V130.26H15.84V133.86H4.32V141.06H14.04V144.084H4.32V153.948H0Z" fill="black"/>
</svg>
