<?xml version="1.0" encoding="UTF-8"?>
    <svg id="Layer_2" xmlns="http://www.w3.org/2000/svg" width="500" height="552.3255813921377" viewBox="0 0 80.3 89.21">
      <defs>
        <style>
          .cls-1 {
            fill: #001A72;
          }
        </style>
      </defs>
      <g id="_">
        <g>
          <path class="cls-1"
            d="M40.15,89.21c-1.96,0-3.92-.5-5.67-1.51L5.67,71.06c-3.5-2.02-5.67-5.78-5.67-9.82V27.97c0-4.04,2.17-7.8,5.67-9.82L34.48,1.51c3.5-2.02,7.84-2.02,11.34,0l28.81,16.63c3.5,2.02,5.67,5.78,5.67,9.82V61.23c0,4.04-2.17,7.8-5.67,9.82l-28.81,16.63c-1.75,1.01-3.71,1.51-5.67,1.51ZM36.01,4.16L7.2,20.79c-2.56,1.48-4.14,4.23-4.14,7.18V61.23c0,2.95,1.59,5.7,4.14,7.18l28.81,16.63c2.56,1.48,5.73,1.48,8.29,0l28.81-16.63c2.56-1.48,4.14-4.23,4.14-7.18V27.97c0-2.95-1.59-5.7-4.14-7.18L44.3,4.16c-2.56-1.48-5.73-1.48-8.29,0h0Z" />
          <path class="cls-1"
            d="M55.33,49.66c-2.2-.02-4.01-2.04-6.08-4.37-1.82-2.04-3.87-4.35-6.58-5.94s-5.72-2.26-8.39-2.85c-3.21-.72-5.99-1.33-6.94-3.53-.84-1.93,.21-4.11,1.08-5.58,5.12-8.72,16.39-11.65,25.11-6.53,8.72,5.12,11.65,16.39,6.53,25.11-.86,1.47-2.26,3.45-4.35,3.66-.13,.01-.26,.02-.39,.02Zm-10.94-28.31c-1.33-.01-2.67,.15-4,.5-3.96,1.03-7.29,3.54-9.36,7.07-1.12,1.9-1.01,2.62-.91,2.85,.34,.79,2.73,1.32,4.83,1.79,2.74,.61,6.15,1.37,9.26,3.2s5.43,4.44,7.3,6.53c1.43,1.61,3.06,3.43,3.92,3.35,.24-.02,.93-.28,2.04-2.18,4.28-7.29,1.84-16.7-5.45-20.99-2.35-1.38-4.97-2.1-7.62-2.12Z" />
          <path class="cls-1"
            d="M19.22,47.6c-.26,0-.52-.07-.75-.21-.72-.42-.96-1.35-.54-2.06l10.81-18.51c.42-.72,1.35-.96,2.06-.54,.72,.42,.96,1.35,.54,2.06l-10.81,18.51c-.28,.48-.79,.75-1.31,.74Z" />
          <path class="cls-1"
            d="M48.17,64.82c-.26,0-.52-.07-.75-.21-.72-.42-.96-1.35-.54-2.06l10.81-18.51c.42-.72,1.35-.96,2.06-.54,.72,.42,.96,1.35,.54,2.06l-10.81,18.51c-.28,.48-.79,.75-1.31,.74Z" />
          <path class="cls-1"
            d="M34.95,53.93c-.26,0-.52-.07-.75-.21-.72-.42-.96-1.35-.54-2.06l8.13-13.68c.42-.72,1.35-.96,2.06-.54,.72,.42,.96,1.35,.54,2.06l-8.13,13.68c-.28,.48-.79,.75-1.31,.74Z" />
          <path class="cls-1"
            d="M26.18,57.87c-.26,0-.52-.07-.75-.21-.72-.42-.96-1.35-.54-2.06l11.69-19.89c.42-.72,1.35-.96,2.06-.54,.72,.42,.96,1.35,.54,2.06l-11.69,19.89c-.28,.48-.79,.75-1.31,.74Z" />
          <path class="cls-1"
            d="M35.57,64.03c-.26,0-.52-.07-.75-.21-.72-.42-.96-1.35-.54-2.06l11.86-20.15c.42-.72,1.35-.96,2.06-.54,.72,.42,.96,1.35,.54,2.06l-11.86,20.15c-.28,.48-.79,.75-1.31,.74Z" />
          <path class="cls-1"
            d="M16.58,63.04c-.26,0-.52-.07-.75-.21-.72-.42-.96-1.35-.54-2.06l15.94-26.95c.42-.72,1.35-.96,2.06-.54,.72,.42,.96,1.35,.54,2.06l-15.94,26.95c-.28,.48-.79,.75-1.31,.74Z" />
          <path class="cls-1"
            d="M35.95,74.41c-.26,0-.52-.07-.75-.21-.72-.42-.96-1.35-.54-2.06l15.94-26.95c.42-.72,1.35-.96,2.06-.54,.72,.42,.96,1.35,.54,2.06l-15.94,26.95c-.28,.48-.79,.75-1.31,.74Z" />
          <circle class="cls-1" cx="48.93" cy="27.16" r="2.44" />
          <circle class="cls-1" cx="41.83" cy="27.87" r="2" />
          <circle class="cls-1" cx="55.54" cy="37.2" r="2.06" />
          <circle class="cls-1" cx="54.39" cy="32.72" r="1.6" />
          <circle class="cls-1" cx="51.39" cy="34.78" r="1.19" />
          <circle class="cls-1" cx="37.91" cy="26.34" r="1.19" />
        </g>
      </g>
    </svg>