<?xml version="1.0" encoding="UTF-8" standalone="no"?>
<svg
   width="375"
   height="375"
   viewBox="0 0 375 375"
   fill="none"
   version="1.1"
   id="svg3"
   xmlns="http://www.w3.org/2000/svg"
   xmlns:svg="http://www.w3.org/2000/svg">
  <defs
     id="defs3" />
  <g
     id="layer2">
    <rect
       style="fill:#ffffff;stroke-width:1.68624"
       id="rect13"
       width="233.63504"
       height="317.12845"
       x="71.042633"
       y="28.56354" />
    <path
       style="fill:#ffffff"
       d="m 67.38064,115.71893 -18.309957,34.42271 -2.197194,145.01486 9.521177,31.49312 37.352311,23.43675 194.085543,-1.4648 35.88751,-31.49312 5.85919,-16.84516 V 154.53603 l -14.64797,-22.70434 -8.05638,-19.77476 z"
       id="path14" />
  </g>
  <g
     id="g3"
     transform="translate(13.803601,-1.8517605)">
    <path
       d="M 47.830397,31.829061 H 297.3724 v 43.6697 H 47.830397 Z"
       fill="#ade2ff"
       id="path1" />
    <path
       d="m 48.939397,175.31576 c 0,-13.782 11.173,-24.955 24.954,-24.955 H 273.5264 c 13.782,0 24.954,11.173 24.954,24.955 v 115.412 c 0,24.119 -19.551,43.67 -43.669,43.67 H 92.609397 c -24.118,0 -43.67,-19.551 -43.67,-43.67 z"
       fill="#ade2ff"
       id="path2" />
    <path
       fill-rule="evenodd"
       clip-rule="evenodd"
       d="m 41.569397,23.335061 c 2.553,-2.5504 6.015,-3.9833 9.625,-3.9833 H 296.1984 c 3.61,0 7.072,1.4329 9.625,3.9833 2.552,2.5506 3.986,6.0098 3.986,9.6167 v 40.8 c 0,3.607 -1.434,7.066 -3.986,9.617 -2.553,2.55 -6.015,3.983 -9.625,3.983 H 51.194397 c -3.61,0 -7.072,-1.433 -9.625,-3.983 -2.553,-2.551 -3.987,-6.01 -3.987,-9.617 v -40.8 c 0,-3.6069 1.434,-7.0661 3.987,-9.6167 z m 254.629003,9.6167 H 51.194397 v 40.8 H 296.1984 Z m -238.199003,57.8 c 3.759,0 6.806,3.044 6.806,6.8 0,10.991999 -1.841,19.366999 -4.813,26.232999 -2.955,6.83 -6.88,11.798 -10.398,15.972 -0.535,0.635 -1.052,1.242 -1.551,1.829 -2.91,3.421 -5.225,6.143 -7.054,9.454 -1.986,3.597 -3.407,7.989 -3.407,14.512 v 125.8 c 0,14.428 5.737,28.265 15.947,38.467 10.211,10.202 24.059,15.933 38.499,15.933 H 255.3644 c 14.44,0 28.288,-5.731 38.499,-15.933 10.21,-10.202 15.946,-24.039 15.946,-38.467 v -125.8 c 0,-6.523 -1.42,-10.915 -3.407,-14.512 -1.828,-3.311 -4.143,-6.033 -7.054,-9.454 -0.499,-0.587 -1.015,-1.194 -1.55,-1.829 -3.518,-4.174 -7.443,-9.142 -10.399,-15.972 -2.971,-6.866 -4.812,-15.241 -4.812,-26.232999 0,-3.756 3.047,-6.8 6.805,-6.8 3.759,0 6.806,3.044 6.806,6.8 0,9.407999 1.562,15.907999 3.694,20.834999 2.149,4.965 5.029,8.709 8.317,12.61 0.442,0.524 0.901,1.061 1.371,1.611 2.882,3.374 6.193,7.25 8.74,11.862 3.118,5.647 5.101,12.305 5.101,21.082 v 125.8 c 0,18.035 -7.171,35.331 -19.934,48.083 -12.763,12.753 -30.073,19.917 -48.123,19.917 H 92.028397 c -18.05,0 -35.361,-7.164 -48.124,-19.917 -12.763,-12.752 -19.933,-30.048 -19.933,-48.083 v -125.8 c 0,-8.777 1.982,-15.435 5.1,-21.082 2.547,-4.612 5.858,-8.488 8.741,-11.862 0.47,-0.55 0.928,-1.087 1.37,-1.611 3.288,-3.901 6.169,-7.645 8.317,-12.61 2.133,-4.927 3.695,-11.427 3.695,-20.834999 0,-3.756 3.047,-6.8 6.805,-6.8 z"
       fill="#000000"
       id="path3" />
  </g>
</svg>
