<svg width="96" height="109" viewBox="0 0 96 109" fill="none" xmlns="http://www.w3.org/2000/svg">
<path d="M5.64171 1.27701C6.46006 0.459356 7.56997 0 8.72727 0H87.2727C88.43 0 89.54 0.459356 90.3583 1.27701C91.1766 2.09468 91.6364 3.20366 91.6364 4.36V17.44C91.6364 18.5963 91.1766 19.7053 90.3583 20.523C89.5399 21.3407 88.43 21.8 87.2727 21.8H8.72727C7.56997 21.8 6.46006 21.3407 5.64171 20.523C4.82337 19.7053 4.36364 18.5963 4.36364 17.44V4.36C4.36364 3.20366 4.82337 2.09468 5.64171 1.27701Z" fill="black"/>
<path d="M10.9091 22.89C12.1141 22.89 13.0909 23.866 13.0909 25.07C13.0909 28.5938 12.5007 31.2789 11.5481 33.4801C10.6005 35.6696 9.34213 37.2623 8.21435 38.6005C8.04408 38.8025 7.87953 38.9959 7.72051 39.1829L7.71766 39.1862C6.78459 40.2831 6.04199 41.1561 5.45581 42.2176C4.819 43.3709 4.36364 44.7789 4.36364 46.87V87.2C4.36364 91.8254 6.20259 96.2613 9.47596 99.5319C12.7493 102.803 17.1889 104.64 21.8182 104.64H74.1818C78.8111 104.64 83.2507 102.803 86.524 99.5319C89.7974 96.2613 91.6364 91.8254 91.6364 87.2V46.87C91.6364 44.7789 91.181 43.3709 90.5442 42.2176C89.958 41.1561 89.2158 40.2835 88.2827 39.1867C88.1227 38.9986 87.9571 38.8039 87.7857 38.6005C86.6579 37.2623 85.3995 35.6696 84.452 33.4801C83.4993 31.2789 82.9091 28.5938 82.9091 25.07C82.9091 23.866 83.8859 22.89 85.0909 22.89C86.2959 22.89 87.2727 23.866 87.2727 25.07C87.2727 28.0862 87.7734 30.1698 88.4571 31.7496C89.1459 33.341 90.0694 34.5414 91.1234 35.792C91.2645 35.9594 91.4109 36.1307 91.5608 36.3063L91.5621 36.3078L91.5629 36.3086C92.487 37.3903 93.5484 38.6327 94.3649 40.1114C95.3645 41.9216 96 44.0561 96 46.87V87.2C96 92.9817 93.7013 98.5266 89.6096 102.615C85.5179 106.703 79.9684 109 74.1818 109H21.8182C16.0316 109 10.4821 106.703 6.3904 102.615C2.2987 98.5266 0 92.9817 0 87.2V46.87C0 44.0561 0.635546 41.9216 1.6351 40.1114C2.45162 38.6327 3.51305 37.3903 4.43714 36.3086L4.43932 36.3061C4.58924 36.1306 4.73553 35.9594 4.87656 35.792C5.93059 34.5414 6.85408 33.341 7.54286 31.7496C8.22656 30.1698 8.72727 28.0862 8.72727 25.07C8.72727 23.866 9.70411 22.89 10.9091 22.89Z" fill="black"/>
<path d="M8 50C8 45.5817 11.5817 42 16 42H80C84.4183 42 88 45.5817 88 50V87C88 94.732 81.732 101 74 101H22C14.268 101 8 94.732 8 87V50Z" fill="black"/>
</svg>
